<svg version="1.0" preserveAspectRatio="xMidYMid meet" viewBox="12.750000000000002 110.999997336 336 154.499996292" zoomAndPan="magnify" xmlns:xlink="http://www.w3.org/1999/xlink" xmlns="http://www.w3.org/2000/svg" style="max-height: 500px" width="336" height="154.499996292"><defs><g/><clipPath id="b60d7e2409"><path clip-rule="nonzero" d="M 54 199 L 127 199 L 127 221 L 54 221 Z M 54 199"/></clipPath><clipPath id="db5f936812"><path clip-rule="nonzero" d="M 90.695312 246.820312 L 14.855469 170.984375 L 91.753906 94.085938 L 167.59375 169.925781 Z M 90.695312 246.820312"/></clipPath><clipPath id="6326f78e00"><path clip-rule="nonzero" d="M 90.695312 246.820312 L 14.855469 170.984375 L 91.753906 94.085938 L 167.59375 169.925781 Z M 90.695312 246.820312"/></clipPath><clipPath id="7dd138219e"><path clip-rule="nonzero" d="M 90.695312 246.820312 L 14.855469 170.984375 L 91.753906 94.085938 L 167.59375 169.925781 Z M 90.695312 246.820312"/></clipPath><clipPath id="5f6a454933"><path clip-rule="nonzero" d="M 52 136 L 92 136 L 92 194 L 52 194 Z M 52 136"/></clipPath><clipPath id="3dac05e80f"><path clip-rule="nonzero" d="M 90.695312 246.820312 L 14.855469 170.984375 L 91.753906 94.085938 L 167.59375 169.925781 Z M 90.695312 246.820312"/></clipPath><clipPath id="07241201ba"><path clip-rule="nonzero" d="M 90.695312 246.820312 L 14.855469 170.984375 L 91.753906 94.085938 L 167.59375 169.925781 Z M 90.695312 246.820312"/></clipPath><clipPath id="f6219ea032"><path clip-rule="nonzero" d="M 90.695312 246.820312 L 14.855469 170.984375 L 91.753906 94.085938 L 167.59375 169.925781 Z M 90.695312 246.820312"/></clipPath><clipPath id="3e9ec07137"><path clip-rule="nonzero" d="M 107 136 L 147 136 L 147 193 L 107 193 Z M 107 136"/></clipPath><clipPath id="98545e9cae"><path clip-rule="nonzero" d="M 90.695312 246.820312 L 14.855469 170.984375 L 91.753906 94.085938 L 167.59375 169.925781 Z M 90.695312 246.820312"/></clipPath><clipPath id="48043cca64"><path clip-rule="nonzero" d="M 90.695312 246.820312 L 14.855469 170.984375 L 91.753906 94.085938 L 167.59375 169.925781 Z M 90.695312 246.820312"/></clipPath><clipPath id="0a22b64229"><path clip-rule="nonzero" d="M 90.695312 246.820312 L 14.855469 170.984375 L 91.753906 94.085938 L 167.59375 169.925781 Z M 90.695312 246.820312"/></clipPath><clipPath id="c16174c406"><path clip-rule="nonzero" d="M 36 148 L 76 148 L 76 205 L 36 205 Z M 36 148"/></clipPath><clipPath id="316b153a2e"><path clip-rule="nonzero" d="M 90.695312 246.820312 L 14.855469 170.984375 L 91.753906 94.085938 L 167.59375 169.925781 Z M 90.695312 246.820312"/></clipPath><clipPath id="db0d582473"><path clip-rule="nonzero" d="M 90.695312 246.820312 L 14.855469 170.984375 L 91.753906 94.085938 L 167.59375 169.925781 Z M 90.695312 246.820312"/></clipPath><clipPath id="1640090fdf"><path clip-rule="nonzero" d="M 90.695312 246.820312 L 14.855469 170.984375 L 91.753906 94.085938 L 167.59375 169.925781 Z M 90.695312 246.820312"/></clipPath><clipPath id="a619e5a1dc"><path clip-rule="nonzero" d="M 55 120 L 128 120 L 128 142 L 55 142 Z M 55 120"/></clipPath><clipPath id="433eeedfbd"><path clip-rule="nonzero" d="M 90.695312 246.820312 L 14.855469 170.984375 L 91.753906 94.085938 L 167.59375 169.925781 Z M 90.695312 246.820312"/></clipPath><clipPath id="33025da86c"><path clip-rule="nonzero" d="M 90.695312 246.820312 L 14.855469 170.984375 L 91.753906 94.085938 L 167.59375 169.925781 Z M 90.695312 246.820312"/></clipPath><clipPath id="c0592fffa6"><path clip-rule="nonzero" d="M 90.695312 246.820312 L 14.855469 170.984375 L 91.753906 94.085938 L 167.59375 169.925781 Z M 90.695312 246.820312"/></clipPath><clipPath id="45aea0333a"><path clip-rule="nonzero" d="M 90 147 L 130 147 L 130 205 L 90 205 Z M 90 147"/></clipPath><clipPath id="2efbd416ca"><path clip-rule="nonzero" d="M 90.695312 246.820312 L 14.855469 170.984375 L 91.753906 94.085938 L 167.59375 169.925781 Z M 90.695312 246.820312"/></clipPath><clipPath id="b11a03b9d6"><path clip-rule="nonzero" d="M 90.695312 246.820312 L 14.855469 170.984375 L 91.753906 94.085938 L 167.59375 169.925781 Z M 90.695312 246.820312"/></clipPath><clipPath id="d3c28f1ea5"><path clip-rule="nonzero" d="M 90.695312 246.820312 L 14.855469 170.984375 L 91.753906 94.085938 L 167.59375 169.925781 Z M 90.695312 246.820312"/></clipPath></defs><g clip-path="url(#b60d7e2409)"><g clip-path="url(#db5f936812)"><g clip-path="url(#6326f78e00)"><g clip-path="url(#7dd138219e)"><path fill-rule="evenodd" fill-opacity="1" d="M 90.964844 199.53125 C 89.175781 199.546875 87.675781 199.746094 86.464844 200.125 L 56.625 209.070312 C 55.398438 209.433594 54.785156 209.867188 54.800781 210.375 C 54.78125 210.882812 55.386719 211.316406 56.625 211.675781 L 86.285156 220 C 87.542969 220.335938 89.03125 220.5 90.746094 220.484375 C 92.535156 220.46875 94.035156 220.269531 95.246094 219.890625 L 125.058594 211.023438 C 126.304688 210.679688 126.929688 210.246094 126.9375 209.71875 C 126.941406 209.226562 126.324219 208.804688 125.082031 208.449219 L 95.429688 200.019531 C 94.171875 199.679688 92.683594 199.519531 90.96875 199.535156 Z M 90.964844 199.53125" fill="#9823c6"/></g></g></g></g><g clip-path="url(#5f6a454933)"><g clip-path="url(#3dac05e80f)"><g clip-path="url(#07241201ba)"><g clip-path="url(#f6219ea032)"><path fill-rule="evenodd" fill-opacity="1" d="M 54.144531 148.183594 C 53.261719 149.351562 52.808594 150.582031 52.796875 151.878906 L 52.464844 189.667969 C 52.453125 190.964844 52.875 191.933594 53.726562 192.574219 C 54.597656 193.230469 55.652344 193.371094 56.902344 192.992188 L 86.726562 184.109375 C 87.957031 183.75 89.015625 182.96875 89.902344 181.769531 C 90.789062 180.605469 91.246094 179.382812 91.277344 178.101562 L 91.59375 140.332031 C 91.621094 139.050781 91.195312 138.089844 90.304688 137.453125 C 89.433594 136.796875 88.386719 136.644531 87.15625 137.007812 L 57.34375 145.875 C 56.097656 146.253906 55.03125 147.027344 54.144531 148.1875 Z M 54.144531 148.183594" fill="#ffc34e"/></g></g></g></g><g clip-path="url(#3e9ec07137)"><g clip-path="url(#98545e9cae)"><g clip-path="url(#48043cca64)"><g clip-path="url(#0a22b64229)"><path fill-rule="evenodd" fill-opacity="1" d="M 108.828125 137.390625 C 107.929688 138.046875 107.480469 139.015625 107.484375 140.292969 L 107.125 178.082031 C 107.132812 179.363281 107.570312 180.574219 108.433594 181.722656 C 109.300781 182.90625 110.34375 183.667969 111.566406 184.007812 L 141.246094 192.359375 C 142.46875 192.695312 143.519531 192.527344 144.402344 191.855469 C 145.285156 191.214844 145.730469 190.25 145.746094 188.953125 L 146.089844 151.152344 C 146.101562 149.855469 145.671875 148.632812 144.808594 147.484375 C 143.945312 146.335938 142.890625 145.582031 141.648438 145.226562 L 111.996094 136.898438 C 110.773438 136.5625 109.722656 136.730469 108.839844 137.402344 Z M 108.828125 137.390625" fill="#ff3e3c"/></g></g></g></g><g clip-path="url(#c16174c406)"><g clip-path="url(#316b153a2e)"><g clip-path="url(#db0d582473)"><g clip-path="url(#1640090fdf)"><path fill-rule="evenodd" fill-opacity="1" d="M 38.179688 149.1875 C 37.296875 149.863281 36.839844 150.839844 36.8125 152.117188 L 36.496094 189.890625 C 36.464844 191.171875 36.882812 192.386719 37.75 193.53125 C 38.632812 194.699219 39.683594 195.453125 40.90625 195.792969 L 70.5625 204.167969 C 71.800781 204.523438 72.863281 204.367188 73.746094 203.695312 C 74.628906 203.019531 75.074219 202.035156 75.085938 200.738281 L 75.429688 162.9375 C 75.441406 161.640625 75.015625 160.417969 74.152344 159.269531 C 73.285156 158.121094 72.242188 157.375 71.019531 157.035156 L 41.367188 148.710938 C 40.125 148.355469 39.0625 148.511719 38.179688 149.1875 Z M 38.179688 149.1875" fill="#26c4ff"/></g></g></g></g><g clip-path="url(#a619e5a1dc)"><g clip-path="url(#433eeedfbd)"><g clip-path="url(#33025da86c)"><g clip-path="url(#c0592fffa6)"><path fill-rule="evenodd" fill-opacity="1" d="M 55.558594 131.394531 C 55.535156 131.902344 56.144531 132.335938 57.382812 132.695312 L 87.011719 141.09375 C 88.269531 141.433594 89.765625 141.605469 91.5 141.605469 C 93.269531 141.574219 94.769531 141.375 96 141.015625 L 125.808594 132.042969 C 127.039062 131.679688 127.664062 131.246094 127.691406 130.734375 C 127.695312 130.210938 127.078125 129.785156 125.835938 129.464844 L 96.183594 121.140625 C 94.957031 120.800781 93.460938 120.632812 91.695312 120.628906 C 89.96875 120.671875 88.457031 120.859375 87.191406 121.21875 L 57.382812 130.085938 C 56.15625 130.449219 55.542969 130.882812 55.558594 131.394531 Z M 55.558594 131.394531" fill="#fe0fa6"/></g></g></g></g><g clip-path="url(#45aea0333a)"><g clip-path="url(#2efbd416ca)"><g clip-path="url(#b11a03b9d6)"><g clip-path="url(#d3c28f1ea5)"><path fill-rule="evenodd" fill-opacity="1" d="M 95.742188 156.820312 C 94.515625 157.179688 93.445312 157.953125 92.542969 159.132812 C 91.65625 160.296875 91.203125 161.53125 91.195312 162.828125 L 90.851562 200.628906 C 90.839844 201.925781 91.269531 202.886719 92.136719 203.507812 C 93.007812 204.160156 94.058594 204.3125 95.289062 203.949219 L 125.121094 195.058594 C 126.371094 194.675781 127.429688 193.898438 128.296875 192.714844 C 129.183594 191.550781 129.644531 190.328125 129.671875 189.050781 L 129.988281 151.277344 C 130.019531 149.996094 129.601562 149.03125 128.730469 148.371094 C 127.859375 147.710938 126.800781 147.574219 125.550781 147.953125 Z M 95.742188 156.820312" fill="#98d843"/></g></g></g></g><g fill-opacity="1" fill="#000000"><g transform="translate(162.381277, 158.254238)"><g><path d="M 23.078125 0.03125 L 23.078125 -10.984375 C 23.078125 -11.597656 22.757812 -11.921875 22.125 -11.953125 L 9.125 -11.953125 C 8.65625 -11.921875 8.25 -11.710938 7.90625 -11.328125 C 7.5625 -10.953125 7.304688 -10.507812 7.140625 -10 C 6.984375 -9.488281 6.90625 -8.976562 6.90625 -8.46875 C 6.90625 -7.96875 6.984375 -7.460938 7.140625 -6.953125 C 7.304688 -6.453125 7.5625 -6.007812 7.90625 -5.625 C 8.25 -5.238281 8.65625 -5.046875 9.125 -5.046875 L 20.703125 -5.046875 L 20.703125 -0.078125 L 9.28125 -0.078125 C 7.550781 -0.0976562 6.117188 -0.582031 4.984375 -1.53125 C 3.859375 -2.488281 3.054688 -3.566406 2.578125 -4.765625 C 2.097656 -5.960938 1.859375 -7.207031 1.859375 -8.5 C 1.859375 -9.738281 2.101562 -10.957031 2.59375 -12.15625 C 3.09375 -13.351562 3.898438 -14.425781 5.015625 -15.375 C 6.128906 -16.332031 7.773438 -16.847656 9.953125 -16.921875 L 25.53125 -16.921875 C 26.226562 -16.921875 26.820312 -16.691406 27.3125 -16.234375 C 27.8125 -15.773438 28.070312 -15.203125 28.09375 -14.515625 L 28.09375 0.03125 Z M 23.078125 0.03125"/></g></g></g><g fill-opacity="1" fill="#000000"><g transform="translate(197.067848, 158.254238)"><g><path d="M 23.15625 -10.984375 C 23.15625 -11.597656 22.832031 -11.921875 22.1875 -11.953125 L 9.203125 -11.953125 C 8.734375 -11.921875 8.320312 -11.710938 7.96875 -11.328125 C 7.625 -10.953125 7.375 -10.507812 7.21875 -10 C 7.0625 -9.488281 6.984375 -8.976562 6.984375 -8.46875 C 6.984375 -7.96875 7.0625 -7.460938 7.21875 -6.953125 C 7.375 -6.453125 7.625 -6.007812 7.96875 -5.625 C 8.320312 -5.238281 8.734375 -5.046875 9.203125 -5.046875 L 20.78125 -5.046875 L 20.78125 -0.078125 L 9.359375 -0.078125 C 7.617188 -0.0976562 6.1875 -0.582031 5.0625 -1.53125 C 3.9375 -2.488281 3.132812 -3.566406 2.65625 -4.765625 C 2.175781 -5.960938 1.9375 -7.207031 1.9375 -8.5 C 1.9375 -9.738281 2.179688 -10.957031 2.671875 -12.15625 C 3.171875 -13.351562 3.972656 -14.425781 5.078125 -15.375 C 6.191406 -16.332031 7.835938 -16.847656 10.015625 -16.921875 L 25.609375 -16.921875 C 26.296875 -16.921875 26.882812 -16.691406 27.375 -16.234375 C 27.875 -15.773438 28.140625 -15.203125 28.171875 -14.515625 L 28.171875 -2.78125 C 28.171875 -0.800781 27.894531 1.066406 27.34375 2.828125 C 26.851562 4.378906 26.046875 5.691406 24.921875 6.765625 C 23.796875 7.847656 22.367188 8.4375 20.640625 8.53125 L 5.71875 8.53125 L 5.71875 3.5625 L 19.375 3.5625 C 20.3125 3.507812 21.085938 3.148438 21.703125 2.484375 C 22.328125 1.816406 22.722656 1.035156 22.890625 0.140625 C 23.066406 -0.742188 23.15625 -1.890625 23.15625 -3.296875 Z M 23.15625 -10.984375"/></g></g></g><g fill-opacity="1" fill="#000000"><g transform="translate(232.051232, 158.254238)"><g><path d="M 10.015625 -0.078125 C 7.835938 -0.148438 6.191406 -0.660156 5.078125 -1.609375 C 3.972656 -2.566406 3.171875 -3.644531 2.671875 -4.84375 C 2.179688 -6.039062 1.9375 -7.257812 1.9375 -8.5 C 1.9375 -9.78125 2.175781 -11.019531 2.65625 -12.21875 C 3.132812 -13.425781 3.9375 -14.503906 5.0625 -15.453125 C 6.1875 -16.410156 7.617188 -16.898438 9.359375 -16.921875 L 21.375 -16.921875 C 23.101562 -16.898438 24.53125 -16.410156 25.65625 -15.453125 C 26.78125 -14.503906 27.582031 -13.425781 28.0625 -12.21875 C 28.550781 -11.019531 28.796875 -9.78125 28.796875 -8.5 C 28.796875 -7.257812 28.546875 -6.039062 28.046875 -4.84375 C 27.554688 -3.644531 26.753906 -2.566406 25.640625 -1.609375 C 24.523438 -0.660156 22.878906 -0.148438 20.703125 -0.078125 Z M 9.203125 -11.953125 C 8.734375 -11.953125 8.320312 -11.757812 7.96875 -11.375 C 7.625 -10.988281 7.375 -10.539062 7.21875 -10.03125 C 7.0625 -9.53125 6.984375 -9.03125 6.984375 -8.53125 C 6.984375 -8.007812 7.0625 -7.492188 7.21875 -6.984375 C 7.375 -6.484375 7.625 -6.039062 7.96875 -5.65625 C 8.320312 -5.269531 8.734375 -5.066406 9.203125 -5.046875 L 21.53125 -5.046875 C 22 -5.066406 22.40625 -5.269531 22.75 -5.65625 C 23.09375 -6.039062 23.34375 -6.484375 23.5 -6.984375 C 23.664062 -7.492188 23.75 -8.007812 23.75 -8.53125 C 23.75 -9.03125 23.664062 -9.53125 23.5 -10.03125 C 23.34375 -10.539062 23.09375 -10.988281 22.75 -11.375 C 22.40625 -11.757812 22 -11.953125 21.53125 -11.953125 Z M 9.203125 -11.953125"/></g></g></g><g fill-opacity="1" fill="#000000"><g transform="translate(267.183024, 158.254238)"><g><path d="M 3.125 -12.25 C 3.59375 -13.4375 4.390625 -14.503906 5.515625 -15.453125 C 6.640625 -16.410156 8.066406 -16.898438 9.796875 -16.921875 L 25.828125 -16.921875 L 25.828125 -11.953125 L 9.65625 -11.953125 C 9.175781 -11.953125 8.765625 -11.757812 8.421875 -11.375 C 8.078125 -10.988281 7.8125 -10.535156 7.625 -10.015625 C 7.4375 -9.492188 7.34375 -9 7.34375 -8.53125 L 7.34375 0.03125 L 2.34375 0.03125 L 2.34375 -8.5 L 2.375 -8.5 C 2.375 -9.78125 2.625 -11.03125 3.125 -12.25 Z M 3.125 -12.25"/></g></g></g><g fill-opacity="1" fill="#000000"><g transform="translate(299.198269, 158.254238)"><g><path d="M 23.078125 0.03125 L 23.078125 -10.984375 C 23.078125 -11.597656 22.757812 -11.921875 22.125 -11.953125 L 9.125 -11.953125 C 8.65625 -11.921875 8.25 -11.710938 7.90625 -11.328125 C 7.5625 -10.953125 7.304688 -10.507812 7.140625 -10 C 6.984375 -9.488281 6.90625 -8.976562 6.90625 -8.46875 C 6.90625 -7.96875 6.984375 -7.460938 7.140625 -6.953125 C 7.304688 -6.453125 7.5625 -6.007812 7.90625 -5.625 C 8.25 -5.238281 8.65625 -5.046875 9.125 -5.046875 L 20.703125 -5.046875 L 20.703125 -0.078125 L 9.28125 -0.078125 C 7.550781 -0.0976562 6.117188 -0.582031 4.984375 -1.53125 C 3.859375 -2.488281 3.054688 -3.566406 2.578125 -4.765625 C 2.097656 -5.960938 1.859375 -7.207031 1.859375 -8.5 C 1.859375 -9.738281 2.101562 -10.957031 2.59375 -12.15625 C 3.09375 -13.351562 3.898438 -14.425781 5.015625 -15.375 C 6.128906 -16.332031 7.773438 -16.847656 9.953125 -16.921875 L 25.53125 -16.921875 C 26.226562 -16.921875 26.820312 -16.691406 27.3125 -16.234375 C 27.8125 -15.773438 28.070312 -15.203125 28.09375 -14.515625 L 28.09375 0.03125 Z M 23.078125 0.03125"/></g></g></g><g fill-opacity="1" fill="#000000"><g transform="translate(162.381277, 203.254235)"><g><path d="M 2.640625 -21.96875 L 20.296875 -21.96875 C 20.441406 -21.96875 20.59375 -21.957031 20.75 -21.9375 L 20.96875 -21.9375 C 22.695312 -21.882812 24.117188 -21.414062 25.234375 -20.53125 C 26.347656 -19.65625 27.148438 -18.660156 27.640625 -17.546875 C 28.140625 -16.441406 28.390625 -15.316406 28.390625 -14.171875 C 28.390625 -12.984375 28.144531 -11.832031 27.65625 -10.71875 C 27.175781 -9.613281 26.375 -8.617188 25.25 -7.734375 C 24.125 -6.859375 22.695312 -6.429688 20.96875 -6.453125 L 16.8125 -6.453125 L 16.8125 -11.4375 L 21.1875 -11.4375 C 21.65625 -11.4375 22.046875 -11.585938 22.359375 -11.890625 C 22.671875 -12.203125 22.898438 -12.5625 23.046875 -12.96875 C 23.191406 -13.375 23.265625 -13.789062 23.265625 -14.21875 C 23.265625 -14.613281 23.191406 -15.015625 23.046875 -15.421875 C 22.898438 -15.828125 22.671875 -16.179688 22.359375 -16.484375 C 22.046875 -16.796875 21.65625 -16.96875 21.1875 -17 L 2.640625 -17 Z M 15.8125 -14.65625 L 15.296875 -10.765625 C 15.046875 -9.003906 14.585938 -7.347656 13.921875 -5.796875 C 13.203125 -4.234375 12.203125 -2.910156 10.921875 -1.828125 C 9.648438 -0.753906 8.148438 -0.171875 6.421875 -0.078125 L 2.859375 -0.078125 L 2.859375 -5.046875 L 5.828125 -5.046875 C 6.765625 -5.097656 7.585938 -5.457031 8.296875 -6.125 C 9.003906 -6.789062 9.492188 -7.550781 9.765625 -8.40625 C 10.035156 -9.257812 10.234375 -10.191406 10.359375 -11.203125 L 10.796875 -14.65625 Z M 15.8125 -14.65625"/></g></g></g><g fill-opacity="1" fill="#000000"><g transform="translate(197.809883, 203.254235)"><g><path d="M 13.953125 -26.125 C 13.953125 -26.863281 14.210938 -27.492188 14.734375 -28.015625 C 15.253906 -28.535156 15.882812 -28.796875 16.625 -28.796875 C 17.363281 -28.796875 17.992188 -28.535156 18.515625 -28.015625 C 19.035156 -27.492188 19.296875 -26.863281 19.296875 -26.125 C 19.296875 -25.382812 19.035156 -24.753906 18.515625 -24.234375 C 17.992188 -23.710938 17.363281 -23.453125 16.625 -23.453125 C 15.882812 -23.453125 15.253906 -23.710938 14.734375 -24.234375 C 14.210938 -24.753906 13.953125 -25.382812 13.953125 -26.125 Z M 20.34375 -26.125 C 20.34375 -26.863281 20.597656 -27.492188 21.109375 -28.015625 C 21.628906 -28.535156 22.265625 -28.796875 23.015625 -28.796875 C 23.753906 -28.796875 24.382812 -28.535156 24.90625 -28.015625 C 25.425781 -27.492188 25.6875 -26.863281 25.6875 -26.125 C 25.6875 -25.382812 25.425781 -24.753906 24.90625 -24.234375 C 24.382812 -23.710938 23.753906 -23.453125 23.015625 -23.453125 C 22.265625 -23.453125 21.628906 -23.710938 21.109375 -24.234375 C 20.597656 -24.753906 20.34375 -25.382812 20.34375 -26.125 Z M 18.375 -21.96875 C 20.101562 -21.875 21.523438 -21.210938 22.640625 -19.984375 C 23.753906 -18.753906 24.554688 -17.359375 25.046875 -15.796875 C 25.546875 -14.242188 25.796875 -12.648438 25.796875 -11.015625 C 25.796875 -9.390625 25.550781 -7.796875 25.0625 -6.234375 C 24.582031 -4.671875 23.78125 -3.273438 22.65625 -2.046875 C 21.53125 -0.828125 20.101562 -0.171875 18.375 -0.078125 L 2.78125 -0.078125 L 2.78125 -5.046875 L 17.109375 -5.046875 C 18.046875 -5.097656 18.820312 -5.457031 19.4375 -6.125 C 20.0625 -6.789062 20.515625 -7.550781 20.796875 -8.40625 C 21.085938 -9.257812 21.234375 -10.128906 21.234375 -11.015625 C 21.234375 -11.910156 21.085938 -12.785156 20.796875 -13.640625 C 20.515625 -14.492188 20.0625 -15.253906 19.4375 -15.921875 C 18.820312 -16.585938 18.046875 -16.945312 17.109375 -17 L 2.78125 -17 L 2.78125 -21.96875 Z M 18.375 -21.96875"/></g></g></g><g fill-opacity="1" fill="#000000"><g transform="translate(231.197892, 203.254235)"><g><path d="M 2.1875 -14.25 L 25.125 -14.25 C 25.8125 -14.25 26.40625 -14.015625 26.90625 -13.546875 C 27.425781 -13.003906 27.660156 -12.410156 27.609375 -11.765625 L 27.46875 -10.390625 C 27.21875 -8.878906 26.757812 -7.347656 26.09375 -5.796875 C 25.375 -4.234375 24.375 -2.910156 23.09375 -1.828125 C 21.820312 -0.753906 20.320312 -0.171875 18.59375 -0.078125 L 9.09375 -0.078125 L 9.09375 -5.046875 L 18 -5.046875 C 18.9375 -5.097656 19.757812 -5.457031 20.46875 -6.125 C 21.175781 -6.789062 21.675781 -7.570312 21.96875 -8.46875 C 22.164062 -8.976562 22.019531 -9.25 21.53125 -9.28125 L 2.1875 -9.28125 Z M 2.1875 -21.96875 L 27.34375 -21.96875 L 27.34375 -17 L 2.1875 -17 Z M 2.1875 -21.96875"/></g></g></g><g fill-opacity="1" fill="#000000"><g transform="translate(49.778183, 253.205095)"><g><path d="M 0.15625 0 L 4.4375 -11.203125 L 6.0625 -11.203125 L 10.34375 0 L 8.234375 0 L 7.375 -2.46875 L 3.078125 -2.46875 L 2.203125 0 Z M 3.6875 -4.171875 L 6.78125 -4.171875 L 5.25 -8.546875 Z M 3.6875 -4.171875"/></g></g></g><g fill-opacity="1" fill="#000000"><g transform="translate(67.343639, 253.205095)"><g><path d="M 1.140625 0 L 1.140625 -11.203125 L 2.96875 -11.203125 L 2.96875 0 Z M 1.140625 0"/></g></g></g><g fill-opacity="1" fill="#000000"><g transform="translate(78.526633, 253.205095)"><g><path d="M 4.1875 0.6875 C 4.113281 0.53125 4 0.34375 3.84375 0.125 C 3.695312 -0.0820312 3.539062 -0.285156 3.375 -0.484375 C 3.207031 -0.679688 3.050781 -0.835938 2.90625 -0.953125 C 4.351562 -1.515625 5.40625 -2.222656 6.0625 -3.078125 C 6.726562 -3.929688 7.101562 -5.023438 7.1875 -6.359375 C 6.34375 -6.347656 5.53125 -6.332031 4.75 -6.3125 C 3.976562 -6.300781 3.320312 -6.285156 2.78125 -6.265625 C 2.238281 -6.253906 1.878906 -6.242188 1.703125 -6.234375 L 1.59375 -8.125 C 1.726562 -8.113281 2.035156 -8.109375 2.515625 -8.109375 C 2.992188 -8.109375 3.582031 -8.109375 4.28125 -8.109375 C 4.988281 -8.117188 5.753906 -8.128906 6.578125 -8.140625 C 7.410156 -8.148438 8.234375 -8.160156 9.046875 -8.171875 C 9.867188 -8.179688 10.632812 -8.191406 11.34375 -8.203125 C 12.0625 -8.210938 12.660156 -8.222656 13.140625 -8.234375 C 13.628906 -8.253906 13.9375 -8.269531 14.0625 -8.28125 L 14.078125 -6.40625 C 13.929688 -6.414062 13.617188 -6.421875 13.140625 -6.421875 C 12.660156 -6.421875 12.078125 -6.414062 11.390625 -6.40625 C 10.710938 -6.40625 9.976562 -6.398438 9.1875 -6.390625 C 9.09375 -4.648438 8.632812 -3.21875 7.8125 -2.09375 C 7 -0.96875 5.789062 -0.0390625 4.1875 0.6875 Z M 3.890625 -10.109375 L 3.78125 -11.984375 C 3.90625 -11.984375 4.164062 -11.984375 4.5625 -11.984375 C 4.96875 -11.984375 5.441406 -11.988281 5.984375 -12 C 6.535156 -12.007812 7.113281 -12.019531 7.71875 -12.03125 C 8.320312 -12.039062 8.894531 -12.050781 9.4375 -12.0625 C 9.988281 -12.082031 10.457031 -12.097656 10.84375 -12.109375 C 11.238281 -12.117188 11.492188 -12.128906 11.609375 -12.140625 L 11.640625 -10.265625 C 11.503906 -10.273438 11.238281 -10.273438 10.84375 -10.265625 C 10.457031 -10.265625 9.992188 -10.257812 9.453125 -10.25 C 8.921875 -10.25 8.363281 -10.238281 7.78125 -10.21875 C 7.195312 -10.207031 6.632812 -10.195312 6.09375 -10.1875 C 5.5625 -10.175781 5.097656 -10.160156 4.703125 -10.140625 C 4.304688 -10.128906 4.035156 -10.117188 3.890625 -10.109375 Z M 15.109375 -10.578125 C 14.898438 -10.921875 14.632812 -11.28125 14.3125 -11.65625 C 14 -12.039062 13.710938 -12.351562 13.453125 -12.59375 L 14.359375 -13.265625 C 14.503906 -13.128906 14.6875 -12.929688 14.90625 -12.671875 C 15.132812 -12.421875 15.351562 -12.164062 15.5625 -11.90625 C 15.769531 -11.644531 15.929688 -11.425781 16.046875 -11.25 Z M 13.59375 -9.421875 C 13.476562 -9.648438 13.320312 -9.890625 13.125 -10.140625 C 12.9375 -10.398438 12.738281 -10.644531 12.53125 -10.875 C 12.332031 -11.113281 12.148438 -11.3125 11.984375 -11.46875 L 12.875 -12.125 C 13.03125 -11.988281 13.21875 -11.796875 13.4375 -11.546875 C 13.65625 -11.296875 13.867188 -11.035156 14.078125 -10.765625 C 14.285156 -10.503906 14.441406 -10.28125 14.546875 -10.09375 Z M 13.59375 -9.421875"/></g></g></g><g fill-opacity="1" fill="#000000"><g transform="translate(101.594774, 253.205095)"><g><path d="M 7.765625 0.4375 L 7.765625 -4.671875 C 6.535156 -3.847656 5.304688 -3.171875 4.078125 -2.640625 C 3.960938 -2.859375 3.8125 -3.101562 3.625 -3.375 C 3.445312 -3.65625 3.269531 -3.863281 3.09375 -4 C 3.789062 -4.25 4.507812 -4.566406 5.25 -4.953125 C 5.988281 -5.347656 6.703125 -5.789062 7.390625 -6.28125 C 8.078125 -6.78125 8.707031 -7.296875 9.28125 -7.828125 C 9.851562 -8.367188 10.328125 -8.898438 10.703125 -9.421875 L 11.984375 -8.453125 C 11.628906 -8.003906 11.226562 -7.554688 10.78125 -7.109375 C 10.332031 -6.671875 9.859375 -6.25 9.359375 -5.84375 L 9.359375 0.4375 Z M 7.765625 0.4375"/></g></g></g><g fill-opacity="1" fill="#000000"><g transform="translate(124.662914, 253.205095)"><g><path d="M 13.59375 -1.640625 C 13.320312 -1.828125 12.96875 -2.09375 12.53125 -2.4375 C 12.09375 -2.78125 11.617188 -3.160156 11.109375 -3.578125 C 10.609375 -4.003906 10.113281 -4.425781 9.625 -4.84375 C 9.132812 -5.269531 8.695312 -5.660156 8.3125 -6.015625 C 7.925781 -6.367188 7.632812 -6.644531 7.4375 -6.84375 C 7.300781 -7 7.175781 -7.078125 7.0625 -7.078125 C 6.957031 -7.085938 6.828125 -7.019531 6.671875 -6.875 C 6.378906 -6.65625 6.039062 -6.414062 5.65625 -6.15625 C 5.269531 -5.90625 4.863281 -5.65625 4.4375 -5.40625 C 4.007812 -5.164062 3.59375 -4.941406 3.1875 -4.734375 C 2.78125 -4.535156 2.414062 -4.367188 2.09375 -4.234375 L 0.90625 -6.03125 C 1.269531 -6.144531 1.691406 -6.3125 2.171875 -6.53125 C 2.660156 -6.75 3.160156 -7 3.671875 -7.28125 C 4.191406 -7.5625 4.675781 -7.847656 5.125 -8.140625 C 5.582031 -8.441406 5.957031 -8.722656 6.25 -8.984375 C 6.582031 -9.273438 6.878906 -9.414062 7.140625 -9.40625 C 7.410156 -9.394531 7.710938 -9.21875 8.046875 -8.875 C 8.265625 -8.664062 8.582031 -8.375 9 -8 C 9.425781 -7.632812 9.910156 -7.234375 10.453125 -6.796875 C 10.992188 -6.359375 11.550781 -5.921875 12.125 -5.484375 C 12.695312 -5.054688 13.25 -4.660156 13.78125 -4.296875 C 14.3125 -3.941406 14.773438 -3.65625 15.171875 -3.4375 C 14.898438 -3.21875 14.613281 -2.9375 14.3125 -2.59375 C 14.019531 -2.257812 13.78125 -1.941406 13.59375 -1.640625 Z M 13.359375 -9.515625 C 13.160156 -9.847656 12.890625 -10.203125 12.546875 -10.578125 C 12.210938 -10.953125 11.910156 -11.253906 11.640625 -11.484375 L 12.53125 -12.1875 C 12.6875 -12.0625 12.875 -11.875 13.09375 -11.625 C 13.320312 -11.382812 13.546875 -11.132812 13.765625 -10.875 C 13.984375 -10.625 14.148438 -10.40625 14.265625 -10.21875 Z M 11.90625 -8.3125 C 11.695312 -8.65625 11.425781 -9.015625 11.09375 -9.390625 C 10.769531 -9.773438 10.472656 -10.082031 10.203125 -10.3125 L 11.109375 -11.015625 C 11.253906 -10.878906 11.4375 -10.6875 11.65625 -10.4375 C 11.882812 -10.1875 12.101562 -9.929688 12.3125 -9.671875 C 12.53125 -9.421875 12.695312 -9.207031 12.8125 -9.03125 Z M 11.90625 -8.3125"/></g></g></g><g fill-opacity="1" fill="#000000"><g transform="translate(147.731055, 253.205095)"><g><path d="M 1.46875 -5.046875 C 1.476562 -5.191406 1.484375 -5.390625 1.484375 -5.640625 C 1.484375 -5.898438 1.484375 -6.15625 1.484375 -6.40625 C 1.484375 -6.664062 1.476562 -6.875 1.46875 -7.03125 C 1.675781 -7.019531 2.035156 -7.003906 2.546875 -6.984375 C 3.066406 -6.972656 3.6875 -6.960938 4.40625 -6.953125 C 5.125 -6.941406 5.894531 -6.929688 6.71875 -6.921875 C 7.539062 -6.921875 8.363281 -6.921875 9.1875 -6.921875 C 10.007812 -6.921875 10.785156 -6.925781 11.515625 -6.9375 C 12.242188 -6.945312 12.875 -6.957031 13.40625 -6.96875 C 13.9375 -6.976562 14.316406 -7 14.546875 -7.03125 C 14.535156 -6.882812 14.523438 -6.679688 14.515625 -6.421875 C 14.515625 -6.171875 14.515625 -5.914062 14.515625 -5.65625 C 14.523438 -5.394531 14.53125 -5.195312 14.53125 -5.0625 C 14.257812 -5.070312 13.863281 -5.082031 13.34375 -5.09375 C 12.832031 -5.101562 12.234375 -5.113281 11.546875 -5.125 C 10.859375 -5.132812 10.125 -5.140625 9.34375 -5.140625 C 8.570312 -5.140625 7.789062 -5.140625 7 -5.140625 C 6.21875 -5.140625 5.46875 -5.132812 4.75 -5.125 C 4.039062 -5.113281 3.398438 -5.101562 2.828125 -5.09375 C 2.253906 -5.082031 1.800781 -5.066406 1.46875 -5.046875 Z M 1.46875 -5.046875"/></g></g></g><g fill-opacity="1" fill="#000000"><g transform="translate(170.799196, 253.205095)"><g><path d="M 6.171875 0.5 L 6.171875 -12.40625 L 8.125 -12.40625 L 8.125 -7.546875 L 8.84375 -8.578125 C 9.101562 -8.390625 9.441406 -8.160156 9.859375 -7.890625 C 10.285156 -7.617188 10.738281 -7.34375 11.21875 -7.0625 C 11.695312 -6.78125 12.160156 -6.519531 12.609375 -6.28125 C 13.054688 -6.050781 13.4375 -5.878906 13.75 -5.765625 C 13.613281 -5.640625 13.460938 -5.46875 13.296875 -5.25 C 13.140625 -5.03125 12.988281 -4.804688 12.84375 -4.578125 C 12.707031 -4.347656 12.597656 -4.15625 12.515625 -4 C 12.253906 -4.132812 11.929688 -4.3125 11.546875 -4.53125 C 11.171875 -4.75 10.773438 -4.988281 10.359375 -5.25 C 9.941406 -5.519531 9.535156 -5.785156 9.140625 -6.046875 C 8.753906 -6.316406 8.414062 -6.554688 8.125 -6.765625 L 8.125 0.5 Z M 6.171875 0.5"/></g></g></g><g fill-opacity="1" fill="#000000"><g transform="translate(193.867337, 253.205095)"><g><path d="M 2.453125 1.171875 C 2.378906 0.953125 2.242188 0.675781 2.046875 0.34375 C 1.847656 0.0078125 1.640625 -0.257812 1.421875 -0.46875 C 2.804688 -0.851562 3.882812 -1.488281 4.65625 -2.375 C 5.425781 -3.269531 5.878906 -4.3125 6.015625 -5.5 L 3.59375 -5.5 L 3.59375 -6.921875 C 3.257812 -6.609375 2.914062 -6.3125 2.5625 -6.03125 C 2.21875 -5.757812 1.875 -5.519531 1.53125 -5.3125 C 1.394531 -5.519531 1.191406 -5.773438 0.921875 -6.078125 C 0.648438 -6.378906 0.390625 -6.628906 0.140625 -6.828125 C 0.753906 -7.160156 1.363281 -7.59375 1.96875 -8.125 C 2.582031 -8.664062 3.144531 -9.265625 3.65625 -9.921875 C 4.164062 -10.585938 4.554688 -11.257812 4.828125 -11.9375 L 6.65625 -11.03125 C 6.351562 -10.375 5.976562 -9.734375 5.53125 -9.109375 C 5.082031 -8.492188 4.59375 -7.921875 4.0625 -7.390625 L 11.859375 -7.390625 C 11.273438 -7.929688 10.769531 -8.523438 10.34375 -9.171875 C 9.914062 -9.828125 9.601562 -10.519531 9.40625 -11.25 L 6.765625 -11.25 L 6.765625 -13.0625 L 10.96875 -13.0625 C 11.125 -11.851562 11.632812 -10.753906 12.5 -9.765625 C 13.363281 -8.773438 14.492188 -7.945312 15.890625 -7.28125 C 15.734375 -7.144531 15.566406 -6.96875 15.390625 -6.75 C 15.222656 -6.539062 15.0625 -6.328125 14.90625 -6.109375 C 14.75 -5.890625 14.625 -5.691406 14.53125 -5.515625 C 14.195312 -5.691406 13.875 -5.878906 13.5625 -6.078125 C 13.25 -6.285156 12.9375 -6.503906 12.625 -6.734375 C 12.613281 -6.066406 12.582031 -5.359375 12.53125 -4.609375 C 12.488281 -3.867188 12.425781 -3.171875 12.34375 -2.515625 C 12.257812 -1.859375 12.160156 -1.328125 12.046875 -0.921875 C 11.847656 -0.171875 11.507812 0.34375 11.03125 0.625 C 10.550781 0.914062 9.90625 1.0625 9.09375 1.0625 L 7.8125 1.0625 C 7.789062 0.875 7.753906 0.65625 7.703125 0.40625 C 7.660156 0.15625 7.609375 -0.0859375 7.546875 -0.328125 C 7.492188 -0.566406 7.4375 -0.757812 7.375 -0.90625 L 8.796875 -0.90625 C 9.222656 -0.90625 9.535156 -0.96875 9.734375 -1.09375 C 9.929688 -1.226562 10.085938 -1.476562 10.203125 -1.84375 C 10.296875 -2.101562 10.367188 -2.453125 10.421875 -2.890625 C 10.484375 -3.335938 10.53125 -3.796875 10.5625 -4.265625 C 10.59375 -4.742188 10.609375 -5.15625 10.609375 -5.5 L 7.953125 -5.5 C 7.816406 -3.957031 7.296875 -2.59375 6.390625 -1.40625 C 5.492188 -0.226562 4.179688 0.628906 2.453125 1.171875 Z M 2.453125 1.171875"/></g></g></g><g fill-opacity="1" fill="#000000"><g transform="translate(216.935477, 253.205095)"><g><path d="M 11.265625 1.1875 L 11.265625 -6.78125 L 9.40625 -6.78125 C 9.382812 -5.007812 9.175781 -3.492188 8.78125 -2.234375 C 8.394531 -0.984375 7.773438 0.128906 6.921875 1.109375 C 6.796875 0.992188 6.625 0.867188 6.40625 0.734375 C 6.195312 0.597656 5.988281 0.46875 5.78125 0.34375 C 5.570312 0.226562 5.398438 0.144531 5.265625 0.09375 C 6.085938 -0.695312 6.664062 -1.6875 7 -2.875 C 7.34375 -4.070312 7.515625 -5.492188 7.515625 -7.140625 L 7.515625 -12.078125 C 8.191406 -12.097656 8.910156 -12.160156 9.671875 -12.265625 C 10.441406 -12.378906 11.195312 -12.523438 11.9375 -12.703125 C 12.6875 -12.890625 13.351562 -13.113281 13.9375 -13.375 L 15.09375 -11.78125 C 14.59375 -11.582031 14 -11.394531 13.3125 -11.21875 C 12.625 -11.050781 11.9375 -10.910156 11.25 -10.796875 C 10.5625 -10.679688 9.945312 -10.601562 9.40625 -10.5625 L 9.40625 -8.515625 L 15.21875 -8.515625 L 15.21875 -6.78125 L 13.140625 -6.78125 L 13.140625 1.1875 Z M 3.0625 1.1875 L 3.0625 -4.71875 C 2.84375 -4.3125 2.625 -3.925781 2.40625 -3.5625 C 2.1875 -3.195312 1.972656 -2.875 1.765625 -2.59375 C 1.578125 -2.738281 1.332031 -2.898438 1.03125 -3.078125 C 0.738281 -3.265625 0.46875 -3.40625 0.21875 -3.5 C 0.59375 -3.9375 0.960938 -4.457031 1.328125 -5.0625 C 1.703125 -5.675781 2.035156 -6.304688 2.328125 -6.953125 C 2.617188 -7.597656 2.835938 -8.191406 2.984375 -8.734375 L 0.78125 -8.734375 L 0.78125 -10.40625 L 3.0625 -10.40625 L 3.0625 -13.328125 L 4.8125 -13.328125 L 4.8125 -10.40625 L 6.75 -10.40625 L 6.75 -8.734375 L 4.8125 -8.734375 L 4.8125 -7.84375 C 4.945312 -7.644531 5.113281 -7.410156 5.3125 -7.140625 C 5.519531 -6.878906 5.742188 -6.609375 5.984375 -6.328125 C 6.234375 -6.054688 6.472656 -5.796875 6.703125 -5.546875 C 6.929688 -5.304688 7.132812 -5.109375 7.3125 -4.953125 C 7.207031 -4.867188 7.0625 -4.75 6.875 -4.59375 C 6.695312 -4.4375 6.523438 -4.273438 6.359375 -4.109375 C 6.191406 -3.953125 6.066406 -3.820312 5.984375 -3.71875 C 5.847656 -3.875 5.671875 -4.082031 5.453125 -4.34375 C 5.242188 -4.601562 5.03125 -4.882812 4.8125 -5.1875 L 4.8125 1.1875 Z M 3.0625 1.1875"/></g></g></g><g fill-opacity="1" fill="#000000"><g transform="translate(240.003618, 253.205095)"><g><path d="M 6.25 0.78125 C 6.113281 0.5625 5.921875 0.300781 5.671875 0 C 5.429688 -0.300781 5.1875 -0.535156 4.9375 -0.703125 C 6.40625 -1.304688 7.492188 -2.125 8.203125 -3.15625 C 8.910156 -4.1875 9.28125 -5.519531 9.3125 -7.15625 L 6.515625 -7.15625 L 6.515625 -3.96875 L 4.59375 -3.96875 L 4.59375 -7.140625 C 4.070312 -7.140625 3.566406 -7.132812 3.078125 -7.125 C 2.597656 -7.125 2.171875 -7.117188 1.796875 -7.109375 C 1.429688 -7.109375 1.171875 -7.101562 1.015625 -7.09375 L 1.015625 -9.015625 C 1.128906 -9.015625 1.363281 -9.003906 1.71875 -8.984375 C 2.070312 -8.972656 2.503906 -8.960938 3.015625 -8.953125 C 3.523438 -8.953125 4.050781 -8.945312 4.59375 -8.9375 C 4.59375 -9.4375 4.585938 -9.914062 4.578125 -10.375 C 4.578125 -10.832031 4.570312 -11.238281 4.5625 -11.59375 C 4.550781 -11.945312 4.535156 -12.207031 4.515625 -12.375 L 6.578125 -12.375 C 6.566406 -12.207031 6.554688 -11.941406 6.546875 -11.578125 C 6.535156 -11.222656 6.523438 -10.8125 6.515625 -10.34375 C 6.515625 -9.875 6.515625 -9.398438 6.515625 -8.921875 L 9.3125 -8.921875 C 9.3125 -9.296875 9.304688 -9.722656 9.296875 -10.203125 C 9.285156 -10.679688 9.273438 -11.144531 9.265625 -11.59375 C 9.253906 -12.050781 9.242188 -12.414062 9.234375 -12.6875 L 11.234375 -12.6875 L 11.234375 -8.9375 C 11.753906 -8.945312 12.253906 -8.953125 12.734375 -8.953125 C 13.222656 -8.960938 13.65625 -8.96875 14.03125 -8.96875 C 14.414062 -8.976562 14.695312 -8.992188 14.875 -9.015625 L 14.875 -7.09375 C 14.707031 -7.101562 14.429688 -7.109375 14.046875 -7.109375 C 13.671875 -7.117188 13.238281 -7.125 12.75 -7.125 C 12.257812 -7.132812 11.753906 -7.140625 11.234375 -7.140625 C 11.203125 -5.171875 10.769531 -3.554688 9.9375 -2.296875 C 9.101562 -1.035156 7.875 -0.0078125 6.25 0.78125 Z M 6.25 0.78125"/></g></g></g><g fill-opacity="1" fill="#000000"><g transform="translate(263.071759, 253.205095)"><g><path d="M 5.71875 0.015625 C 5.695312 -0.140625 5.65625 -0.335938 5.59375 -0.578125 C 5.53125 -0.816406 5.460938 -1.054688 5.390625 -1.296875 C 5.316406 -1.535156 5.234375 -1.738281 5.140625 -1.90625 C 5.835938 -1.90625 6.3125 -1.96875 6.5625 -2.09375 C 6.820312 -2.226562 6.953125 -2.472656 6.953125 -2.828125 L 6.953125 -7.375 C 6.460938 -7.375 5.953125 -7.367188 5.421875 -7.359375 C 4.898438 -7.359375 4.398438 -7.351562 3.921875 -7.34375 C 3.453125 -7.34375 3.046875 -7.335938 2.703125 -7.328125 C 2.359375 -7.316406 2.117188 -7.304688 1.984375 -7.296875 L 1.984375 -9.140625 C 2.191406 -9.128906 2.554688 -9.117188 3.078125 -9.109375 C 3.597656 -9.097656 4.195312 -9.085938 4.875 -9.078125 C 5.5625 -9.078125 6.253906 -9.078125 6.953125 -9.078125 L 6.953125 -11.96875 L 8.953125 -11.96875 L 8.953125 -9.078125 C 9.492188 -9.078125 10.03125 -9.078125 10.5625 -9.078125 C 11.101562 -9.085938 11.609375 -9.097656 12.078125 -9.109375 C 12.546875 -9.117188 12.953125 -9.125 13.296875 -9.125 C 13.640625 -9.132812 13.875 -9.140625 14 -9.140625 L 14 -7.296875 C 13.8125 -7.316406 13.457031 -7.332031 12.9375 -7.34375 C 12.425781 -7.351562 11.820312 -7.359375 11.125 -7.359375 C 10.4375 -7.367188 9.710938 -7.375 8.953125 -7.375 L 8.953125 -2.453125 C 8.953125 -1.910156 8.859375 -1.460938 8.671875 -1.109375 C 8.492188 -0.765625 8.164062 -0.5 7.6875 -0.3125 C 7.21875 -0.132812 6.5625 -0.0234375 5.71875 0.015625 Z M 2.453125 -1.703125 C 2.347656 -1.835938 2.210938 -1.992188 2.046875 -2.171875 C 1.878906 -2.347656 1.703125 -2.515625 1.515625 -2.671875 C 1.335938 -2.835938 1.179688 -2.96875 1.046875 -3.0625 C 1.441406 -3.300781 1.832031 -3.601562 2.21875 -3.96875 C 2.601562 -4.332031 2.957031 -4.71875 3.28125 -5.125 C 3.613281 -5.53125 3.878906 -5.914062 4.078125 -6.28125 L 5.6875 -5.375 C 5.445312 -4.925781 5.144531 -4.46875 4.78125 -4 C 4.425781 -3.539062 4.046875 -3.109375 3.640625 -2.703125 C 3.242188 -2.304688 2.847656 -1.972656 2.453125 -1.703125 Z M 13.125 -1.8125 C 12.925781 -2.164062 12.65625 -2.554688 12.3125 -2.984375 C 11.976562 -3.410156 11.625 -3.828125 11.25 -4.234375 C 10.875 -4.648438 10.519531 -4.988281 10.1875 -5.25 L 11.515625 -6.3125 C 11.878906 -6.050781 12.265625 -5.722656 12.671875 -5.328125 C 13.078125 -4.929688 13.460938 -4.523438 13.828125 -4.109375 C 14.191406 -3.703125 14.484375 -3.335938 14.703125 -3.015625 C 14.546875 -2.929688 14.363281 -2.816406 14.15625 -2.671875 C 13.945312 -2.535156 13.75 -2.390625 13.5625 -2.234375 C 13.375 -2.078125 13.226562 -1.9375 13.125 -1.8125 Z M 13.15625 -10.0625 C 12.71875 -10.0625 12.34375 -10.21875 12.03125 -10.53125 C 11.71875 -10.851562 11.5625 -11.226562 11.5625 -11.65625 C 11.5625 -12.09375 11.71875 -12.46875 12.03125 -12.78125 C 12.34375 -13.09375 12.71875 -13.25 13.15625 -13.25 C 13.59375 -13.25 13.960938 -13.09375 14.265625 -12.78125 C 14.578125 -12.46875 14.734375 -12.09375 14.734375 -11.65625 C 14.734375 -11.226562 14.578125 -10.851562 14.265625 -10.53125 C 13.960938 -10.21875 13.59375 -10.0625 13.15625 -10.0625 Z M 13.15625 -10.75 C 13.394531 -10.75 13.601562 -10.835938 13.78125 -11.015625 C 13.96875 -11.191406 14.0625 -11.40625 14.0625 -11.65625 C 14.0625 -11.90625 13.96875 -12.117188 13.78125 -12.296875 C 13.601562 -12.472656 13.394531 -12.5625 13.15625 -12.5625 C 12.90625 -12.5625 12.6875 -12.472656 12.5 -12.296875 C 12.320312 -12.117188 12.234375 -11.90625 12.234375 -11.65625 C 12.234375 -11.40625 12.320312 -11.191406 12.5 -11.015625 C 12.6875 -10.835938 12.90625 -10.75 13.15625 -10.75 Z M 13.15625 -10.75"/></g></g></g><g fill-opacity="1" fill="#000000"><g transform="translate(286.139911, 253.205095)"><g><path d="M 1.46875 -5.046875 C 1.476562 -5.191406 1.484375 -5.390625 1.484375 -5.640625 C 1.484375 -5.898438 1.484375 -6.15625 1.484375 -6.40625 C 1.484375 -6.664062 1.476562 -6.875 1.46875 -7.03125 C 1.675781 -7.019531 2.035156 -7.003906 2.546875 -6.984375 C 3.066406 -6.972656 3.6875 -6.960938 4.40625 -6.953125 C 5.125 -6.941406 5.894531 -6.929688 6.71875 -6.921875 C 7.539062 -6.921875 8.363281 -6.921875 9.1875 -6.921875 C 10.007812 -6.921875 10.785156 -6.925781 11.515625 -6.9375 C 12.242188 -6.945312 12.875 -6.957031 13.40625 -6.96875 C 13.9375 -6.976562 14.316406 -7 14.546875 -7.03125 C 14.535156 -6.882812 14.523438 -6.679688 14.515625 -6.421875 C 14.515625 -6.171875 14.515625 -5.914062 14.515625 -5.65625 C 14.523438 -5.394531 14.53125 -5.195312 14.53125 -5.0625 C 14.257812 -5.070312 13.863281 -5.082031 13.34375 -5.09375 C 12.832031 -5.101562 12.234375 -5.113281 11.546875 -5.125 C 10.859375 -5.132812 10.125 -5.140625 9.34375 -5.140625 C 8.570312 -5.140625 7.789062 -5.140625 7 -5.140625 C 6.21875 -5.140625 5.46875 -5.132812 4.75 -5.125 C 4.039062 -5.113281 3.398438 -5.101562 2.828125 -5.09375 C 2.253906 -5.082031 1.800781 -5.066406 1.46875 -5.046875 Z M 1.46875 -5.046875"/></g></g></g><g fill-opacity="1" fill="#000000"><g transform="translate(309.208039, 253.205095)"><g><path d="M 6.171875 0.5 L 6.171875 -12.40625 L 8.125 -12.40625 L 8.125 -7.546875 L 8.84375 -8.578125 C 9.101562 -8.390625 9.441406 -8.160156 9.859375 -7.890625 C 10.285156 -7.617188 10.738281 -7.34375 11.21875 -7.0625 C 11.695312 -6.78125 12.160156 -6.519531 12.609375 -6.28125 C 13.054688 -6.050781 13.4375 -5.878906 13.75 -5.765625 C 13.613281 -5.640625 13.460938 -5.46875 13.296875 -5.25 C 13.140625 -5.03125 12.988281 -4.804688 12.84375 -4.578125 C 12.707031 -4.347656 12.597656 -4.15625 12.515625 -4 C 12.253906 -4.132812 11.929688 -4.3125 11.546875 -4.53125 C 11.171875 -4.75 10.773438 -4.988281 10.359375 -5.25 C 9.941406 -5.519531 9.535156 -5.785156 9.140625 -6.046875 C 8.753906 -6.316406 8.414062 -6.554688 8.125 -6.765625 L 8.125 0.5 Z M 6.171875 0.5"/></g></g></g></svg>